<svg width="166" height="77" viewBox="0 0 166 77" fill="none" xmlns="http://www.w3.org/2000/svg">
<path d="M83.5646 22.9113L79.1726 39.7593H74.2046L71.5166 28.6713L68.7326 39.7593H63.7646L59.4926 22.9113H63.8846L66.3086 35.1753L69.3086 22.9113H73.8206L76.7006 35.1753L79.1486 22.9113H83.5646ZM91.7188 39.9513C90.4068 39.9513 89.2228 39.6713 88.1668 39.1113C87.1268 38.5513 86.3028 37.7513 85.6948 36.7113C85.1028 35.6713 84.8068 34.4553 84.8068 33.0633C84.8068 31.6873 85.1108 30.4793 85.7188 29.4393C86.3268 28.3833 87.1588 27.5753 88.2148 27.0153C89.2708 26.4553 90.4548 26.1753 91.7668 26.1753C93.0788 26.1753 94.2628 26.4553 95.3188 27.0153C96.3748 27.5753 97.2068 28.3833 97.8148 29.4393C98.4228 30.4793 98.7268 31.6873 98.7268 33.0633C98.7268 34.4393 98.4148 35.6553 97.7908 36.7113C97.1828 37.7513 96.3428 38.5513 95.2708 39.1113C94.2148 39.6713 93.0308 39.9513 91.7188 39.9513ZM91.7188 36.3993C92.5028 36.3993 93.1668 36.1113 93.7108 35.5353C94.2708 34.9593 94.5508 34.1353 94.5508 33.0633C94.5508 31.9913 94.2788 31.1673 93.7348 30.5913C93.2068 30.0153 92.5508 29.7273 91.7668 29.7273C90.9668 29.7273 90.3028 30.0153 89.7748 30.5913C89.2468 31.1513 88.9828 31.9753 88.9828 33.0633C88.9828 34.1353 89.2388 34.9593 89.7508 35.5353C90.2788 36.1113 90.9348 36.3993 91.7188 36.3993ZM105.008 28.5993C105.488 27.8633 106.088 27.2873 106.808 26.8713C107.528 26.4393 108.328 26.2233 109.208 26.2233V30.5673H108.08C107.056 30.5673 106.288 30.7913 105.776 31.2393C105.264 31.6713 105.008 32.4393 105.008 33.5433V39.7593H100.904V26.3673H105.008V28.5993ZM119.354 39.7593L115.274 34.1433V39.7593H111.17V21.9993H115.274V31.8153L119.33 26.3673H124.394L118.826 33.0873L124.442 39.7593H119.354Z" fill="#0077FF"/>
<path d="M34.0325 14.5005C41.8644 8.27075 53.5032 12.8554 54.9824 22.7529L57.0462 36.5623C58.5254 46.4598 48.7356 54.247 39.4245 50.5792L26.4333 45.4619C17.1222 41.7941 15.2732 29.4223 23.1051 23.1925L34.0325 14.5005Z" fill="#0077FF"/>
<path d="M37.974 37.024H31.686L30.678 40H26.382L32.478 23.152H37.23L43.326 40H38.982L37.974 37.024ZM36.918 33.856L34.83 27.688L32.766 33.856H36.918ZM49.2854 23.152V40H45.1814V23.152H49.2854Z" fill="white"/>
</svg>
