<svg width="166" height="77" viewBox="0 0 166 77" fill="none" xmlns="http://www.w3.org/2000/svg">
<path d="M83.5636 22.9114L79.1716 39.7594H74.2036L71.5156 28.6714L68.7316 39.7594H63.7636L59.4916 22.9114H63.8836L66.3076 35.1754L69.3076 22.9114H73.8196L76.6996 35.1754L79.1476 22.9114H83.5636ZM91.7178 39.9514C90.4058 39.9514 89.2218 39.6714 88.1658 39.1114C87.1258 38.5514 86.3018 37.7514 85.6938 36.7114C85.1018 35.6714 84.8058 34.4554 84.8058 33.0634C84.8058 31.6874 85.1098 30.4794 85.7178 29.4394C86.3258 28.3834 87.1578 27.5754 88.2138 27.0154C89.2698 26.4554 90.4538 26.1754 91.7658 26.1754C93.0778 26.1754 94.2618 26.4554 95.3178 27.0154C96.3738 27.5754 97.2058 28.3834 97.8138 29.4394C98.4218 30.4794 98.7258 31.6874 98.7258 33.0634C98.7258 34.4394 98.4138 35.6554 97.7898 36.7114C97.1818 37.7514 96.3418 38.5514 95.2698 39.1114C94.2138 39.6714 93.0298 39.9514 91.7178 39.9514ZM91.7178 36.3994C92.5018 36.3994 93.1658 36.1114 93.7098 35.5354C94.2698 34.9594 94.5498 34.1354 94.5498 33.0634C94.5498 31.9914 94.2778 31.1674 93.7338 30.5914C93.2058 30.0154 92.5498 29.7274 91.7658 29.7274C90.9658 29.7274 90.3018 30.0154 89.7738 30.5914C89.2458 31.1514 88.9818 31.9754 88.9818 33.0634C88.9818 34.1354 89.2378 34.9594 89.7498 35.5354C90.2778 36.1114 90.9338 36.3994 91.7178 36.3994ZM105.007 28.5994C105.487 27.8634 106.087 27.2874 106.807 26.8714C107.527 26.4394 108.327 26.2234 109.207 26.2234V30.5674H108.079C107.055 30.5674 106.287 30.7914 105.775 31.2394C105.263 31.6714 105.007 32.4394 105.007 33.5434V39.7594H100.903V26.3674H105.007V28.5994ZM119.353 39.7594L115.273 34.1434V39.7594H111.169V21.9994H115.273V31.8154L119.329 26.3674H124.393L118.825 33.0874L124.441 39.7594H119.353Z" fill="#0077FF"/>
<path d="M34.033 14.5005C41.8649 8.27075 53.5037 12.8554 54.9829 22.7529L57.0467 36.5623C58.5259 46.4598 48.7361 54.247 39.425 50.5792L26.4338 45.4619C17.1227 41.7941 15.2737 29.4223 23.1056 23.1925L34.033 14.5005Z" fill="#0077FF"/>
<path d="M37.9745 37.024H31.6865L30.6785 40H26.3825L32.4785 23.152H37.2305L43.3265 40H38.9825L37.9745 37.024ZM36.9185 33.856L34.8305 27.688L32.7665 33.856H36.9185ZM49.2858 23.152V40H45.1818V23.152H49.2858Z" fill="white"/>
</svg>
