<svg width="16" height="387" viewBox="0 0 16 387" fill="none" xmlns="http://www.w3.org/2000/svg">
<path d="M7.42278 385.966C7.8133 386.357 8.44647 386.357 8.83699 385.966L15.201 379.602C15.5915 379.212 15.5915 378.578 15.201 378.188C14.8104 377.797 14.1773 377.797 13.7867 378.188L8.12988 383.845L2.47303 378.188C2.0825 377.797 1.44934 377.797 1.05882 378.188C0.668291 378.578 0.668291 379.212 1.05882 379.602L7.42278 385.966ZM8.83699 0.802917C8.44647 0.412384 7.8133 0.412384 7.42278 0.802917L1.05882 7.16687C0.668291 7.5574 0.668291 8.19055 1.05882 8.58109C1.44934 8.97159 2.0825 8.97159 2.47303 8.58109L8.12988 2.92422L13.7867 8.58109C14.1773 8.97159 14.8104 8.97159 15.201 8.58109C15.5915 8.19055 15.5915 7.5574 15.201 7.16687L8.83699 0.802917ZM9.12988 385.259L9.12988 1.51001H7.12988L7.12988 385.259H9.12988Z" fill="#FF3030"/>
</svg>
