<svg width="177" height="16" viewBox="0 0 177 16" fill="none" xmlns="http://www.w3.org/2000/svg">
<path d="M1.0551 7.58391C0.664576 7.97443 0.664576 8.6076 1.0551 8.99812L7.41906 15.3621C7.80959 15.7526 8.44275 15.7526 8.83327 15.3621C9.2238 14.9716 9.2238 14.3384 8.83327 13.9479L3.17642 8.29102L8.83327 2.63416C9.2238 2.24364 9.2238 1.61047 8.83327 1.21995C8.44275 0.829423 7.80959 0.829423 7.41906 1.21995L1.0551 7.58391ZM176.218 8.99812C176.609 8.6076 176.609 7.97443 176.218 7.58391L169.854 1.21995C169.464 0.829423 168.831 0.829423 168.44 1.21995C168.05 1.61047 168.05 2.24364 168.44 2.63416L174.097 8.29102L168.44 13.9479C168.05 14.3384 168.05 14.9716 168.44 15.3621C168.831 15.7526 169.464 15.7526 169.854 15.3621L176.218 8.99812ZM1.76221 9.29102L175.511 9.29102V7.29102L1.76221 7.29102V9.29102Z" fill="#FF3030"/>
</svg>
