<svg width="66" height="66" viewBox="0 0 66 66" fill="none" xmlns="http://www.w3.org/2000/svg">
<circle cx="32.5387" cy="32.539" r="32" transform="rotate(0.973361 32.5387 32.539)" fill="#001F43"/>
<path d="M39.3903 33.8665C39.2743 33.7503 39.1365 33.6581 38.9849 33.5953C38.8332 33.5324 38.6707 33.5 38.5065 33.5C38.3424 33.5 38.1798 33.5324 38.0282 33.5953C37.8765 33.6581 37.7388 33.7503 37.6228 33.8665L35.6303 35.859C34.7065 35.584 32.9828 34.959 31.8903 33.8665C30.7978 32.774 30.1728 31.0503 29.8978 30.1265L31.8903 28.134C32.0065 28.018 32.0986 27.8803 32.1615 27.7286C32.2244 27.577 32.2568 27.4144 32.2568 27.2503C32.2568 27.0861 32.2244 26.9235 32.1615 26.7719C32.0986 26.6202 32.0065 26.4825 31.8903 26.3665L26.8903 21.3665C26.7743 21.2503 26.6365 21.1581 26.4849 21.0953C26.3332 21.0324 26.1707 21 26.0065 21C25.8424 21 25.6798 21.0324 25.5282 21.0953C25.3765 21.1581 25.2388 21.2503 25.1228 21.3665L21.7328 24.7565C21.2578 25.2315 20.9903 25.884 21.0003 26.5503C21.029 28.3303 21.5003 34.5128 26.3728 39.3853C31.2453 44.2578 37.4278 44.7278 39.2078 44.7565H39.2428C39.9028 44.7565 40.5265 44.4965 40.999 44.024L44.389 40.634C44.5052 40.518 44.5974 40.3803 44.6603 40.2286C44.7232 40.077 44.7555 39.9144 44.7555 39.7503C44.7555 39.5861 44.7232 39.4235 44.6603 39.2719C44.5974 39.1202 44.5052 38.9825 44.389 38.8665L39.3903 33.8665ZM39.2315 42.2565C37.6715 42.2303 32.334 41.8115 28.1403 37.6165C23.9328 33.409 23.5253 28.0528 23.5003 26.524L26.0065 24.0178L29.239 27.2503L27.6228 28.8665C27.4758 29.0133 27.3678 29.1944 27.3085 29.3935C27.2491 29.5925 27.2403 29.8032 27.2828 30.0065C27.3128 30.1503 28.0465 33.559 30.1215 35.634C32.1965 37.709 35.6053 38.4428 35.749 38.4728C35.9522 38.5162 36.1631 38.508 36.3622 38.4488C36.5614 38.3896 36.7425 38.2814 36.889 38.134L38.5053 36.5178L41.7378 39.7503L39.2315 42.2565Z" fill="#0077FF"/>
<path d="M39.4923 24.495L33.8711 30.1163L35.6386 31.8837L41.2598 26.2625L44.7548 29.7563V21H35.9986L39.4923 24.495Z" fill="#0077FF"/>
</svg>
