<svg width="66" height="66" viewBox="0 0 66 66" fill="none" xmlns="http://www.w3.org/2000/svg">
<circle cx="32.5387" cy="32.539" r="32" transform="rotate(0.973361 32.5387 32.539)" fill="#440000"/>
<circle cx="36.7527" cy="27.1011" r="5" transform="rotate(0.973361 36.7527 27.1011)" stroke="#EF3A3A" stroke-width="2"/>
<mask id="path-3-inside-1_2409_3227" fill="white">
<path d="M44.4362 45.7339C46.0928 45.7621 47.5004 44.4161 47.0605 42.8187C46.9612 42.4583 46.8426 42.1028 46.7049 41.7537C46.1989 40.471 45.4453 39.3006 44.487 38.3091C43.5287 37.3177 42.3845 36.5247 41.1197 35.9755C39.8549 35.4262 38.4944 35.1315 37.1157 35.1081C35.737 35.0846 34.3672 35.333 33.0845 35.8389C31.8018 36.3449 30.6313 37.0986 29.6399 38.0569C28.6484 39.0152 27.8555 40.1594 27.3062 41.4242C27.1568 41.7684 27.0261 42.1196 26.9147 42.4765C26.4208 44.058 27.7818 45.451 29.4384 45.4791L36.9373 45.6065L44.4362 45.7339Z"/>
</mask>
<path d="M44.4362 45.7339C46.0928 45.7621 47.5004 44.4161 47.0605 42.8187C46.9612 42.4583 46.8426 42.1028 46.7049 41.7537C46.1989 40.471 45.4453 39.3006 44.487 38.3091C43.5287 37.3177 42.3845 36.5247 41.1197 35.9755C39.8549 35.4262 38.4944 35.1315 37.1157 35.1081C35.737 35.0846 34.3672 35.333 33.0845 35.8389C31.8018 36.3449 30.6313 37.0986 29.6399 38.0569C28.6484 39.0152 27.8555 40.1594 27.3062 41.4242C27.1568 41.7684 27.0261 42.1196 26.9147 42.4765C26.4208 44.058 27.7818 45.451 29.4384 45.4791L36.9373 45.6065L44.4362 45.7339Z" stroke="#EF3A3A" stroke-width="4" mask="url(#path-3-inside-1_2409_3227)"/>
<rect x="18" y="35.6523" width="13" height="2" rx="1" transform="rotate(-45 18 35.6523)" fill="#EF3A3A"/>
<rect x="19.4141" y="26.459" width="13" height="2" rx="1" transform="rotate(45 19.4141 26.459)" fill="#EF3A3A"/>
</svg>
