<svg width="66" height="66" viewBox="0 0 66 66" fill="none" xmlns="http://www.w3.org/2000/svg">
<circle cx="32.5377" cy="32.539" r="32" transform="rotate(0.973361 32.5377 32.539)" fill="#0E2E11"/>
<circle cx="36.9558" cy="27.1011" r="5" transform="rotate(0.973361 36.9558 27.1011)" stroke="#01DD07" stroke-width="2"/>
<mask id="path-3-inside-1_2409_3228" fill="white">
<path d="M44.6393 45.7339C46.296 45.7621 47.7035 44.4161 47.2636 42.8187C47.1643 42.4583 47.0457 42.1028 46.908 41.7537C46.4021 40.471 45.6484 39.3006 44.6901 38.3091C43.7318 37.3177 42.5876 36.5247 41.3228 35.9755C40.058 35.4262 38.6975 35.1315 37.3188 35.1081C35.9401 35.0846 34.5703 35.333 33.2876 35.8389C32.0049 36.3449 30.8344 37.0986 29.843 38.0569C28.8516 39.0152 28.0586 40.1594 27.5094 41.4242C27.3599 41.7684 27.2293 42.1196 27.1178 42.4765C26.6239 44.058 27.9849 45.451 29.6415 45.4791L37.1404 45.6065L44.6393 45.7339Z"/>
</mask>
<path d="M44.6393 45.7339C46.296 45.7621 47.7035 44.4161 47.2636 42.8187C47.1643 42.4583 47.0457 42.1028 46.908 41.7537C46.4021 40.471 45.6484 39.3006 44.6901 38.3091C43.7318 37.3177 42.5876 36.5247 41.3228 35.9755C40.058 35.4262 38.6975 35.1315 37.3188 35.1081C35.9401 35.0846 34.5703 35.333 33.2876 35.8389C32.0049 36.3449 30.8344 37.0986 29.843 38.0569C28.8516 39.0152 28.0586 40.1594 27.5094 41.4242C27.3599 41.7684 27.2293 42.1196 27.1178 42.4765C26.6239 44.058 27.9849 45.451 29.6415 45.4791L37.1404 45.6065L44.6393 45.7339Z" stroke="#01DD07" stroke-width="4" mask="url(#path-3-inside-1_2409_3228)"/>
<rect x="15.4414" y="36.1924" width="13" height="2.43" rx="1" transform="rotate(-45 15.4414 36.1924)" fill="#1FD524"/>
<rect x="13.7158" y="31" width="6.63591" height="2.42649" rx="1" transform="rotate(45 13.7158 31)" fill="#1FD524"/>
</svg>
