<svg width="66" height="66" viewBox="0 0 66 66" fill="none" xmlns="http://www.w3.org/2000/svg">
<circle cx="32.5387" cy="32.539" r="32" transform="rotate(0.973361 32.5387 32.539)" fill="#3F3C00"/>
<circle cx="35.491" cy="25.1011" r="5" transform="rotate(0.973361 35.491 25.1011)" stroke="#FFD703" stroke-width="2"/>
<mask id="path-3-inside-1_2409_3230" fill="white">
<path d="M43.1745 43.7339C44.8311 43.7621 46.2386 42.4161 45.7987 40.8187C45.6995 40.4583 45.5809 40.1028 45.4432 39.7537C44.9372 38.471 44.1836 37.3006 43.2253 36.3091C42.2669 35.3177 41.1227 34.5247 39.858 33.9755C38.5932 33.4262 37.2326 33.1315 35.854 33.1081C34.4753 33.0846 33.1055 33.333 31.8228 33.8389C30.5401 34.3449 29.3696 35.0986 28.3782 36.0569C27.3867 37.0152 26.5937 38.1594 26.0445 39.4242C25.895 39.7684 25.7644 40.1196 25.653 40.4765C25.1591 42.058 26.5201 43.451 28.1767 43.4791L35.6756 43.6065L43.1745 43.7339Z"/>
</mask>
<path d="M43.1745 43.7339C44.8311 43.7621 46.2386 42.4161 45.7987 40.8187C45.6995 40.4583 45.5809 40.1028 45.4432 39.7537C44.9372 38.471 44.1836 37.3006 43.2253 36.3091C42.2669 35.3177 41.1227 34.5247 39.858 33.9755C38.5932 33.4262 37.2326 33.1315 35.854 33.1081C34.4753 33.0846 33.1055 33.333 31.8228 33.8389C30.5401 34.3449 29.3696 35.0986 28.3782 36.0569C27.3867 37.0152 26.5937 38.1594 26.0445 39.4242C25.895 39.7684 25.7644 40.1196 25.653 40.4765C25.1591 42.058 26.5201 43.451 28.1767 43.4791L35.6756 43.6065L43.1745 43.7339Z" stroke="#FFD703" stroke-width="4" mask="url(#path-3-inside-1_2409_3230)"/>
<path d="M23.272 24.144C24.4133 24.144 25.3253 24.4427 26.008 25.04C26.7013 25.6373 27.048 26.48 27.048 27.568C27.048 28.5707 26.7173 29.3547 26.056 29.92C25.4053 30.4747 24.5413 30.7573 23.464 30.768L23.384 31.968H20.984L20.904 28.992H21.864C22.6853 28.992 23.3093 28.8907 23.736 28.688C24.1733 28.4853 24.392 28.1173 24.392 27.584C24.392 27.2107 24.2907 26.9173 24.088 26.704C23.8853 26.4907 23.6027 26.384 23.24 26.384C22.856 26.384 22.5573 26.496 22.344 26.72C22.1307 26.9333 22.024 27.2267 22.024 27.6H19.448C19.4267 26.9493 19.56 26.3627 19.848 25.84C20.1467 25.3173 20.584 24.9067 21.16 24.608C21.7467 24.2987 22.4507 24.144 23.272 24.144ZM22.216 36.128C21.736 36.128 21.3413 35.9893 21.032 35.712C20.7333 35.424 20.584 35.072 20.584 34.656C20.584 34.2293 20.7333 33.872 21.032 33.584C21.3413 33.296 21.736 33.152 22.216 33.152C22.6853 33.152 23.0693 33.296 23.368 33.584C23.6773 33.872 23.832 34.2293 23.832 34.656C23.832 35.072 23.6773 35.424 23.368 35.712C23.0693 35.9893 22.6853 36.128 22.216 36.128Z" fill="#FFD703"/>
</svg>
