<svg width="66" height="66" viewBox="0 0 66 66" fill="none" xmlns="http://www.w3.org/2000/svg">
<circle cx="32.5387" cy="32.539" r="32" transform="rotate(0.973361 32.5387 32.539)" fill="#441E00"/>
<circle cx="38.7517" cy="26.6421" r="5" transform="rotate(0.973361 38.7517 26.6421)" stroke="#EF7E3A" stroke-width="2"/>
<circle cx="25.7361" cy="27.4204" r="5" transform="rotate(0.973361 25.7361 27.4204)" stroke="#EF7E3A" stroke-width="2"/>
<path d="M29.0401 36.0525C28.869 36.3693 28.6221 36.6987 28.3085 37.1171C28.1745 37.2959 28.0283 37.491 27.8706 37.7083C27.3806 38.3834 26.8269 39.2215 26.5546 40.1796C26.4062 40.7016 26.2959 41.293 26.213 41.8608C26.0389 43.0534 25.0734 43.912 24.006 43.8938L18.4583 43.7996C17.8989 43.7901 17.4144 43.5489 17.1223 43.2184C16.8448 42.9044 16.7397 42.519 16.8722 42.0949C16.973 41.772 17.0912 41.4542 17.2264 41.1428C17.7233 39.9985 18.4408 38.9632 19.3378 38.0962C20.2348 37.2292 21.2938 36.5473 22.4544 36.0895C23.6149 35.6317 24.8542 35.407 26.1016 35.4282C26.9734 35.443 27.8372 35.5778 28.669 35.8272C28.7643 35.8558 28.8505 35.8977 28.9201 35.9452C28.9804 35.9864 29.0186 36.0251 29.0401 36.0525Z" stroke="#EF7E3A" stroke-width="2"/>
<mask id="path-5-inside-1_2409_3223" fill="white">
<path d="M46.4352 45.275C48.0919 45.3031 49.4994 43.9571 49.0595 42.3598C48.9602 41.9994 48.8416 41.6438 48.7039 41.2948C48.198 40.0121 47.4443 38.8416 46.486 37.8501C45.5277 36.8587 44.3835 36.0657 43.1187 35.5165C41.8539 34.9672 40.4934 34.6725 39.1147 34.6491C37.736 34.6256 36.3662 34.874 35.0835 35.38C33.8008 35.8859 32.6303 36.6396 31.6389 37.5979C30.6475 38.5562 29.8545 39.7004 29.3052 40.9652C29.1558 41.3094 29.0252 41.6607 28.9137 42.0175C28.4198 43.599 29.7808 44.992 31.4374 45.0202L38.9363 45.1476L46.4352 45.275Z"/>
</mask>
<path d="M46.4352 45.275C48.0919 45.3031 49.4994 43.9571 49.0595 42.3598C48.9602 41.9994 48.8416 41.6438 48.7039 41.2948C48.198 40.0121 47.4443 38.8416 46.486 37.8501C45.5277 36.8587 44.3835 36.0657 43.1187 35.5165C41.8539 34.9672 40.4934 34.6725 39.1147 34.6491C37.736 34.6256 36.3662 34.874 35.0835 35.38C33.8008 35.8859 32.6303 36.6396 31.6389 37.5979C30.6475 38.5562 29.8545 39.7004 29.3052 40.9652C29.1558 41.3094 29.0252 41.6607 28.9137 42.0175C28.4198 43.599 29.7808 44.992 31.4374 45.0202L38.9363 45.1476L46.4352 45.275Z" stroke="#EF7E3A" stroke-width="4" mask="url(#path-5-inside-1_2409_3223)"/>
</svg>
